name processed_emg_signals						
nRows=129						
nColumns=7						
 						
endheader						
time	LGLTMED	LRF	LADDLONG	LST	LTA	LGM
0.98	0.031749018	0.027004752	0.050099549	0.382639311	0.103328332	0.037845694
0.981	0.031672302	0.027095249	0.050113999	0.386067059	0.101566429	0.037727467
0.982	0.031595756	0.027193682	0.050129301	0.389442306	0.099866547	0.037617915
0.983	0.031519459	0.027299501	0.050145208	0.392763527	0.098228015	0.037517441
0.984	0.031443498	0.027412164	0.050161473	0.396029237	0.096650159	0.037426455
0.985	0.031367965	0.027531142	0.050177855	0.399237992	0.095132299	0.037345377
0.986	0.03129296	0.027655919	0.050194114	0.402388394	0.093673751	0.037274633
0.987	0.03121859	0.027785991	0.050210014	0.405479088	0.092273823	0.037214656
0.988	0.031144968	0.027920868	0.050225324	0.408508765	0.090931823	0.037165887
0.989	0.031072215	0.028060076	0.050239817	0.411476164	0.089647054	0.037128772
0.99	0.031000458	0.028203156	0.050253272	0.414380069	0.088418813	0.037103767
0.991	0.03092983	0.028349664	0.050265474	0.417219317	0.087246398	0.037091331
0.992	0.030860473	0.028499173	0.050276216	0.41999279	0.0861291	0.037091931
0.993	0.030792534	0.028651273	0.050285294	0.422699423	0.08506621	0.037106041
0.994	0.030726167	0.028805572	0.050292516	0.425338201	0.084057016	0.03713414
0.995	0.030661534	0.028961696	0.050297694	0.427908157	0.083100804	0.037176711
0.996	0.030598801	0.029119289	0.050300651	0.430408378	0.082196859	0.037234245
0.997	0.030538143	0.029278014	0.050301217	0.432838	0.081344465	0.037307237
0.998	0.03047974	0.029437555	0.050299232	0.435196209	0.080542902	0.037396187
0.999	0.030423778	0.029597615	0.050294546	0.437482242	0.079791454	0.037501599
1	0.030370451	0.029757916	0.050287018	0.439695386	0.079089401	0.037623983
1.001	0.030319958	0.029918202	0.050276516	0.441834976	0.078436024	0.03776385
1.002	0.030272502	0.030078237	0.050262923	0.443900396	0.077830604	0.037921717
1.003	0.030228294	0.030237807	0.050246127	0.445891079	0.077272423	0.038098103
1.004	0.03018755	0.030396719	0.050226032	0.447806501	0.076760764	0.03829353
1.005	0.03015049	0.0305548	0.05020255	0.449646187	0.076294908	0.038508524
1.006	0.030117342	0.030711901	0.050175607	0.451409705	0.075874142	0.038743612
1.007	0.030088335	0.030867892	0.050145139	0.453096665	0.075497751	0.038999321
1.008	0.030063705	0.031022667	0.050111094	0.45470672	0.075165023	0.039276181
1.009	0.030043694	0.031176142	0.050073434	0.456239562	0.074875248	0.039574724
1.01	0.030028543	0.031328252	0.050032131	0.457694923	0.074627718	0.039895479
1.011	0.030018502	0.031478957	0.04998717	0.459072572	0.074421729	0.040238978
1.012	0.030013823	0.031628237	0.049938549	0.460372311	0.074256578	0.040605751
1.013	0.03001476	0.031776094	0.049886277	0.461593979	0.074131567	0.040996328
1.014	0.030021571	0.031922554	0.049830377	0.462737445	0.074046001	0.041411235
1.015	0.030034516	0.03206766	0.049770883	0.46380261	0.073999189	0.041850998
1.016	0.03005386	0.032211479	0.049707842	0.464789403	0.073990443	0.042316139
1.017	0.030079868	0.032354099	0.049641313	0.46569778	0.07401908	0.042807179
1.018	0.030112806	0.032495628	0.049571367	0.466527724	0.074084422	0.043324633
1.019	0.030152943	0.032636196	0.049498088	0.46727924	0.074185796	0.043869012
1.02	0.030200549	0.032775951	0.04942157	0.467952359	0.074322534	0.044440824
1.021	0.030255894	0.032915063	0.049341921	0.46854713	0.074493973	0.045040569
1.022	0.030319249	0.033053719	0.049259259	0.469063623	0.074699457	0.045668743
1.023	0.030390885	0.033192128	0.049173713	0.469501928	0.074938333	0.046325835
1.024	0.030471073	0.033330516	0.049085426	0.469862151	0.075209956	0.047012326
1.025	0.030560082	0.033469128	0.048994549	0.470144414	0.075513689	0.047728689
1.026	0.030658182	0.033608226	0.048901244	0.470348856	0.075848898	0.048475392
1.027	0.03076564	0.033748089	0.048805684	0.47047563	0.076214958	0.049252889
1.028	0.030882722	0.033889014	0.048708053	0.470524903	0.07661125	0.05006163
1.029	0.031009692	0.034031315	0.048608544	0.470496856	0.077037162	0.05090205
1.03	0.031146809	0.034175319	0.048507357	0.470391683	0.07749209	0.051774576
1.031	0.031294333	0.034321369	0.048404706	0.470209589	0.077975435	0.052679624
1.032	0.031452517	0.034469825	0.04830081	0.469950793	0.078486607	0.053617597
1.033	0.031621612	0.034621056	0.048195896	0.469615526	0.079025023	0.054588887
1.034	0.031801865	0.034775449	0.048090202	0.469204032	0.079590108	0.05559387
1.035	0.031993517	0.034933401	0.04798397	0.468716566	0.080181294	0.056632913
1.036	0.032196805	0.035095321	0.047877452	0.468153398	0.08079802	0.057706365
1.037	0.03241196	0.035261629	0.047770905	0.46751481	0.081439733	0.058814561
1.038	0.032639207	0.035432756	0.047664592	0.466801099	0.082105888	0.059957823
1.039	0.032878764	0.035609141	0.047558783	0.466012574	0.082795947	0.061136453
1.04	0.033130843	0.035791235	0.04745375	0.465149562	0.08350938	0.06235074
1.041	0.03339565	0.035979494	0.047349775	0.464212405	0.084245663	0.063600954
1.042	0.033673381	0.036174383	0.047247139	0.463201461	0.085004283	0.064887349
1.043	0.033964226	0.036376373	0.047146129	0.462117106	0.085784729	0.066210157
1.044	0.034268364	0.03658594	0.047047036	0.460959736	0.086586504	0.067569595
1.045	0.034585967	0.036803566	0.046950153	0.459729765	0.087409112	0.068965858
1.046	0.034917199	0.037029737	0.046855773	0.45842763	0.088252068	0.070399122
1.047	0.035262211	0.037264942	0.046764194	0.457053787	0.089114895	0.071869543
1.048	0.035621147	0.037509671	0.046675714	0.455608718	0.089997119	0.073377253
1.049	0.035994139	0.037764419	0.046590631	0.454092928	0.090898278	0.074922364
1.05	0.036381308	0.038029678	0.046509242	0.452506949	0.091817913	0.076504966
1.051	0.036782766	0.038305942	0.046431847	0.450851338	0.092755575	0.078125124
1.052	0.03719861	0.038593704	0.046358741	0.449126682	0.093710821	0.079782882
1.053	0.037628929	0.038893454	0.046290222	0.447333597	0.094683215	0.081478256
1.054	0.038073797	0.039205679	0.046226581	0.445472728	0.095672328	0.083211242
1.055	0.038533277	0.039530866	0.046168111	0.443544753	0.096677739	0.084981806
1.056	0.039007419	0.039869492	0.046115099	0.441550383	0.097699033	0.086789892
1.057	0.03949626	0.040222033	0.04606783	0.439490364	0.098735803	0.088635415
1.058	0.039999823	0.040588958	0.046026584	0.437365474	0.099787649	0.090518265
1.059	0.040518118	0.040970726	0.045991639	0.435176529	0.100854179	0.092438305
1.06	0.041051141	0.041367792	0.045963264	0.432924382	0.101935007	0.094395368
1.061	0.041598875	0.0417806	0.045941727	0.430609922	0.103029757	0.09638926
1.062	0.042161288	0.042209584	0.045927286	0.428234078	0.104138058	0.09841976
1.063	0.042738332	0.042655169	0.045920196	0.425797817	0.105259549	0.100486616
1.064	0.043329946	0.043117767	0.045920703	0.423302143	0.106393875	0.102589547
1.065	0.043936054	0.043597779	0.045929048	0.420748103	0.107540691	0.104728244
1.066	0.044556565	0.044095592	0.045945462	0.418136782	0.10869966	0.106902365
1.067	0.045191373	0.04461158	0.04597017	0.415469303	0.109870453	0.109111542
1.068	0.045840357	0.0451461	0.046003387	0.412746831	0.111052749	0.111355374
1.069	0.046503379	0.045699497	0.04604532	0.40997057	0.112246237	0.113633429
1.07	0.047180288	0.046272097	0.046096167	0.407141761	0.113450615	0.115945246
1.071	0.047870915	0.046864208	0.046156117	0.404261685	0.11466559	0.118290332
1.072	0.048575079	0.047476124	0.046225347	0.401331659	0.115890878	0.120668164
1.073	0.049292579	0.048108116	0.046304026	0.398353038	0.117126205	0.123078188
1.074	0.050023203	0.048760437	0.046392311	0.395327213	0.118371307	0.125519817
1.075	0.05076672	0.049433322	0.046490351	0.392255606	0.119625931	0.127992437
1.076	0.051522886	0.050126983	0.046598279	0.389139678	0.120889832	0.1304954
1.077	0.05229144	0.05084161	0.046716222	0.385980916	0.122162776	0.133028029
1.078	0.053072107	0.051577372	0.046844291	0.382780841	0.123444541	0.135589616
1.079	0.053864596	0.052334415	0.046982589	0.379541	0.124734915	0.138179421
1.08	0.054668602	0.053112862	0.047131203	0.37626297	0.126033697	0.140796678
1.081	0.055483805	0.05391281	0.04729021	0.372948349	0.127340695	0.143440587
1.082	0.056309869	0.054734335	0.047459675	0.369598762	0.128655731	0.146110319
1.083	0.057146447	0.055577484	0.047639649	0.366215851	0.129978638	0.148805019
1.084	0.057993173	0.056442282	0.047830171	0.362801282	0.131309256	0.151523798
1.085	0.058849673	0.057328725	0.048031266	0.359356733	0.132647442	0.154265743
1.086	0.059715555	0.058236783	0.048242946	0.3558839	0.133993061	0.15702991
1.087	0.060590417	0.059166403	0.04846521	0.35238449	0.135345988	0.159815328
1.088	0.061473842	0.060117499	0.048698045	0.348860223	0.136706112	0.162620999
1.089	0.062365402	0.061089961	0.048941423	0.345312825	0.13807333	0.165445896
1.09	0.063264657	0.062083651	0.049195302	0.341744029	0.139447552	0.168288969
1.091	0.064171155	0.063098401	0.049459627	0.338155572	0.140828697	0.171149139
1.092	0.065084434	0.064134017	0.049734329	0.334549194	0.142216693	0.174025304
1.093	0.066004019	0.065190275	0.050019328	0.330926634	0.143611479	0.176916336
1.094	0.066929428	0.066266923	0.050314525	0.327289629	0.145013003	0.179821083
1.095	0.067860169	0.06736368	0.050619813	0.323639911	0.14642122	0.182738371
1.096	0.068795739	0.068480236	0.050935067	0.319979207	0.147836094	0.185667002
1.097	0.069735627	0.069616253	0.05126015	0.316309236	0.149257594	0.188605755
1.098	0.070679317	0.070771362	0.051594912	0.312631705	0.150685699	0.19155339
1.099	0.071626281	0.07194517	0.051939189	0.308948312	0.152120388	0.194508645
1.1	0.072575989	0.073137249	0.052292804	0.305260739	0.153561649	0.197470241
1.101	0.073527903	0.074347148	0.052655564	0.301570653	0.15500947	0.200436877
1.102	0.074481478	0.075574385	0.053027267	0.297879705	0.156463843	0.203407236
1.103	0.075436165	0.07681845	0.053407696	0.294189527	0.157924759	0.206379984
1.104	0.076391414	0.078078807	0.053796619	0.29050173	0.159392211	0.209353772
1.105	0.077346667	0.079354891	0.054193794	0.286817905	0.16086619	0.212327236
1.106	0.078301365	0.08064611	0.054598966	0.283139619	0.162346682	0.215298997
1.107	0.079254947	0.081951848	0.055011866	0.279468417	0.163833673	0.218267666
1.108	0.08020685	0.083271459	0.055432214	0.275805815	0.165327141	0.22123184
